<?xml version="1.0" encoding="UTF-8" standalone="no"?>
<!-- Created with Inkscape (http://www.inkscape.org/) -->

<svg
   width="209.99602mm"
   height="209.99599mm"
   viewBox="0 0 209.99602 209.99598"
   version="1.1"
   id="svg1"
   xml:space="preserve"
   xmlns="http://www.w3.org/2000/svg"
   xmlns:svg="http://www.w3.org/2000/svg"><defs
     id="defs1" /><g
     id="layer4"
     style="display:inline"
     transform="translate(-0.00117747,-51.97476)"><path
       d="M 176.04056,59.75821 H 33.957776 A 26.247927,28.4354 0 0 0 7.7846276,88.112598 v 97.215012 a 26.247927,28.4354 0 0 0 26.1731484,28.35441 h 18.695105 v 40.50625 l 43.802635,-39.56449 a 3.7390212,4.0506269 0 0 1 2.397647,-0.94176 h 77.187397 a 26.247927,28.4354 0 0 0 26.17318,-28.35441 V 88.112598 A 26.247927,28.4354 0 0 0 176.04056,59.75821 Z"
       style="fill:#7b5ea7;fill-opacity:1;stroke:#24243a;stroke-width:15.5669px;stroke-linejoin:round;stroke-opacity:1"
       id="path1" /><path
       d="m -362.9,157.9 c 11.3,0 20.5,9.2 20.5,20.5 0,11.3 -9.2,20.5 -20.5,20.5 -11.3,0 -20.5,-9.2 -20.5,-20.5 0,-11.3 9.2,-20.5 20.5,-20.5 z m 25.8,46.3 h -51.2 c -14.2,0 -25.6,11.4 -25.6,25.6 v 62.6 c 0,4.9 3.9,9 9,9 5.1,0 9,-3.9 9,-9 v -57.5 c 0,-1.4 1.2,-2.6 2.6,-2.6 1.4,0 2.6,1.2 2.6,2.6 v 155.2 c 0,7.7 5.7,14 12.8,14 7.1,0 12.8,-6.3 12.8,-14 v -88.5 c 0,-1.4 1.2,-2.6 2.6,-2.6 1.4,0 2.6,1.2 2.6,2.6 v 88.5 c 0,7.7 5.7,14 12.8,14 7.1,0 12.8,-6.3 12.8,-14 V 234.9 c 0,-1.4 1.2,-2.6 2.6,-2.6 1.4,0 2.6,1.2 2.6,2.6 v 57.6 c 0,4.9 3.9,9 9,9 5.1,0 9,-3.9 9,-9 v -62.7 c -0.4,-14.2 -12.1,-25.6 -26,-25.6 z"
       id="path1-6"
       style="display:inline;fill:#24243a;fill-opacity:1"
       transform="matrix(0.41828794,0,0,0.41835906,202.12938,16.941104)" /><path
       fill-rule="evenodd"
       clip-rule="evenodd"
       d="m 11.5,3.04999 c 0.2485,0 0.45,0.20147 0.45,0.45 v 4 c 0,0.24853 -0.2015,0.45 -0.45,0.45 -0.2485,0 -0.45,-0.20147 -0.45,-0.45 V 4.58639 L 4.58638,11.05 h 2.91361 c 0.24853,0 0.45,0.2015 0.45,0.45 0,0.2485 -0.20147,0.45 -0.45,0.45 h -4 C 3.38064,11.95 3.26618,11.9026 3.18179,11.8182 3.0974,11.7338 3.04999,11.6193 3.04999,11.5 V 7.49999 c 0,-0.24853 0.20147,-0.45 0.45,-0.45 0.24853,0 0.45,0.20147 0.45,0.45 V 10.4136 L 10.4136,3.94999 H 7.49999 c -0.24853,0 -0.45,-0.20147 -0.45,-0.45 0,-0.24853 0.20147,-0.45 0.45,-0.45 z"
       fill="#000000"
       id="path1-61"
       style="display:inline;fill:#24243a;fill-opacity:1"
       transform="matrix(11.173369,0,0,11.573021,52.221336,47.702404)" /></g></svg>
